# AST/ASF file generated using VICON BodyLanguage
# -----------------------------------------------
:version 1.10
:name VICON
:units
  mass 1.0
  length 0.45
  angle deg
:documentation
   .ast/.asf automatically generated from VICON data using
   VICON BodyBuilder and BodyLanguage model FoxedUp or BRILLIANT.MOD
:root
   order TX TY TZ RX RY RZ
   axis XYZ
   position 0 0 0  
   orientation 0 0 0 
:bonedata
  begin
     id 1 
     name lhipjoint
     direction 0.623529 -0.717805 0.309788 
     length 2.23224 
     axis 0 0 0  XYZ
  end
  begin
     id 2 
     name lfemur
     direction 0.34202 -0.939693 0  
     length 7.11402  
     axis 0 0 20  XYZ
    dof rx ry rz
    limits (-160.0 20.0)
           (-70.0 70.0)
           (-60.0 70.0)
  end
  begin
     id 3 
     name ltibia
     direction 0.34202 -0.939693 0   
     length 6.78496   
     axis 0 0 20   XYZ
    dof rx
    limits (-10.0 170.0)
  end
  begin
     id 4 
     name lfoot
     direction 0.125078 -0.343648 0.930732   
     length 1.84054   
     axis -90 7.62852e-016 20   XYZ
    dof rx rz
    limits (-45.0 90.0)
           (-70.0 20.0)
  end
  begin
     id 5 
     name ltoes
     direction 1.53565e-011 -4.21893e-011 1   
     length 0.916474   
     axis -90 7.62852e-016 20   XYZ
    dof rx
    limits (-90.0 20.0)
  end
  begin
     id 6 
     name rhipjoint
     direction -0.564688 -0.757748 0.327026   
     length 2.11457  
     axis 0 0 0  XYZ 
  end
  begin
     id 7 
     name rfemur
     direction -0.34202 -0.939693 0   
     length 7.14609   
     axis 0 0 -20   XYZ
    dof rx ry rz
    limits (-160.0 20.0)
           (-70.0 70.0)
           (-70.0 60.0)
  end
  begin
     id 8 
     name rtibia
     direction -0.34202 -0.939693 0   
     length 6.78101   
     axis 0 0 -20   XYZ
    dof rx
    limits (-10.0 170.0)
 end
 begin
     id 9 
     name rfoot
     direction -0.0992671 -0.272734 0.956955   
     length 1.96168  
     axis -90 -7.62852e-016 -20   XYZ
    dof rx rz
    limits (-45.0 90.0)
           (-20.0 70.0)
  end
  begin
     id 10 
     name rtoes
     direction -1.5356e-011 -4.21891e-011 1   
     length 0.982933   
     axis -90 -7.62852e-016 -20   XYZ
    dof rx
    limits (-90.0 20.0)
  end
  begin
     id 11 
     name lowerback
     direction -0.00596953 0.998668 0.0512524   
     length 1.87557   
     axis 0 0 0   XYZ
    dof rx ry rz
    limits (-20.0 45.0)
           (-30.0 30.0)
           (-30.0 30.0)
  end
  begin
     id 12 
     name upperback
     direction 0.00584879 0.999652 0.0257308   
     length 1.87883   
     axis 0 0 0   XYZ
    dof rx ry rz
    limits (-20.0 45.0)
           (-30.0 30.0)
           (-30.0 30.0)
  end
  begin
     id 13 
     name thorax
     direction 0.010104 0.999947 0.00178881   
     length 1.87779   
     axis 0 0 0   XYZ
    dof rx ry rz
    limits (-20.0 45.0)
           (-30.0 30.0)
           (-30.0 30.0)
  end
  begin
     id 14 
     name lowerneck
     direction 0.0120771 0.995934 -0.0892773   
     length 1.40897   
     axis 0 0 0   XYZ
    dof rx ry rz
    limits (-20.0 45.0)
           (-30.0 30.0)
           (-30.0 30.0)
  end
  begin
     id 15 
     name upperneck
     direction -0.030568 0.999465 -0.0116366   
     length 1.38661   
     axis 0 0 0   XYZ
    dof rx ry rz
    limits (-20.0 45.0)
           (-30.0 30.0)
           (-30.0 30.0)
  end
  begin
     id 16
     name head
     direction -0.0170715 0.999854 -0.00104426  
     length 1.47052  
     axis 0 0 0   XYZ
    dof rx ry rz
    limits (-20.0 45.0)
           (-30.0 30.0)
           (-30.0 30.0)
  end
  begin
     id 17 
     name lclavicle
     direction 0.977763 0.206143 0.038532  
     length 3.02424  
     axis 0 0 0   XYZ
    dof ry rz
    limits (-20.0 10.0)
           (0.0 20.0)
  end
  begin
     id 18 
     name lhumerus
     direction 1 -4.48965e-011 -2.62654e-027   
     length 4.68382   
     axis 180 -30 -90   XYZ
    dof rx ry rz
    limits (-60.0 90.0)
           (-90.0 90.0)
           (-90.0 90.0)
  end
  begin
     id 19
     name lradius
     direction 1 -4.48973e-011 -1.54954e-027   
     length 2.98124   
     axis 180 -30 -90   XYZ
    dof rx
    limits (-10.0 170.0)
  end
  begin
     id 20
     name lwrist
     direction 1 -4.48959e-011 7.20928e-028   
     length 1.49062   
     axis -5.52449e-016 90 90   XYZ
    dof ry
    limits (-180.0 0.0)
 end
  begin
     id 21 
     name lhand
     direction 1 -4.48971e-011 1.44186e-027   
     length 0.707595   
     axis -9.20027e-016 90 90   XYZ
    dof rx rz
    limits (-90.0 90.0)
           (-45.0 45.0)
  end
  begin
     id 22 
     name lfingers
     direction 1 -4.48985e-011 2.88371e-027   
     length 0.570481   
     axis -1.84005e-015 90 90   XYZ
    dof rx
    limits (0.0 90.0)
  end
  begin
     id 23
     name lthumb
     direction 0.707107 -6.34929e-011 0.707107   
     length 0.819101   
     axis -90 45 2.85299e-015   XYZ
    dof rx rz
    limits (-45.0 45.0)
           (-45.0 45.0)
  end
  begin
     id 24 
     name rclavicle
     direction -0.958661 0.284411 -0.00895327   
     length 3.11921  
     axis 0 0 0   XYZ 
    dof ry rz
    limits (-10.0 20.0)
           (-20.0 0.0)
  end
  begin
     id 25 
     name rhumerus
     direction -1 -4.48963e-011 -4.22193e-027  
     length 4.75876   
     axis 180 30 90   XYZ
    dof rx ry rz
    limits (-90.0 60.0)
           (-90.0 90.0)
           (-90.0 90.0)
  end
  begin
     id 26 
     name rradius
     direction -1 -4.48968e-011 -1.07616e-027   
     length 2.93293   
     axis 180 30 90   XYZ
    dof rx
    limits (-10.0 170.0)
  end
  begin
     id 27 
     name rwrist
     direction -1 -4.48965e-011 7.20928e-028   
     length 1.46647   
     axis -5.52449e-016 -90 -90   XYZ
    dof ry
    limits (-180.0 0.0)
  end
  begin
     id 28
     name rhand
     direction -1 -4.48971e-011 1.44186e-027   
     length 0.831748   
     axis -9.20027e-016 -90 -90   XYZ
    dof rx rz
    limits (-90.0 90.0)
           (-45.0 45.0)
  end
  begin
     id 29
     name rfingers
     direction -1 -4.48961e-011 2.88371e-027   
     length 0.670577   
     axis -1.84005e-015 -90 -90   XYZ
    dof rx
    limits (0.0 90.0)
  end
  begin
     id 30
     name rthumb
     direction -0.707107 -6.34929e-011 0.707107   
     length 0.962818   
     axis -90 -45 -2.85299e-015   XYZ
    dof rx rz
    limits (-45.0 45.0)
           (-45.0 45.0)
  end
:hierarchy
  begin
    root lhipjoint rhipjoint lowerback
    lhipjoint lfemur
    lfemur ltibia
    ltibia lfoot
    lfoot ltoes
    rhipjoint rfemur
    rfemur rtibia
    rtibia rfoot
    rfoot rtoes
    lowerback upperback
    upperback thorax
    thorax lowerneck lclavicle rclavicle
    lowerneck upperneck
    upperneck head
    lclavicle lhumerus
    lhumerus lradius
    lradius lwrist
    lwrist lhand lthumb
    lhand lfingers
    rclavicle rhumerus
    rhumerus rradius
    rradius rwrist
    rwrist rhand rthumb
    rhand rfingers
  end

#!OML:ASF E:\id_vita\Project 1\Capture day 1\Session 1\Female.ASF
:FULLY-SPECIFIED
:DEGREES
331
root 47.8286 16.3871 -1.64171 -243.196 -88.927 261.664
lowerback -14.208 0.374338 -2.9421
upperback -6.9266 0.502057 0.24593
thorax 0.625227 0.16987 1.9858
lowerneck 4.52057 -1.05638 -5.1217
upperneck 1.71654 -1.70827 6.37159
head -0.137561 -0.938145 2.95321
rclavicle 3.60297e-015 1.39149e-015
rhumerus -40.7551 -17.7085 -80.2587
rradius 19.7237
rwrist 20.7606
rhand -15.8846 12.3152
rfingers 7.12502
rthumb 10.3115 -17.4121
lclavicle 3.60297e-015 1.39149e-015
lhumerus -46.0709 37.5553 61.2489
lradius 15.1105
lwrist -54.5808
lhand -3.0603 22.8054
lfingers 7.12502
lthumb 22.6561 51.4956
rfemur -26.0766 11.0013 21.8978
rtibia 28.05
rfoot -15.0409 -18.5202
rtoes -4.99665
lfemur -32.5472 -14.3434 -10.4751
ltibia 38.0565
lfoot -18.7327 14.3884
ltoes -10.6391
332
root 47.8209 16.385 -1.67165 -267.018 -88.7984 285.586
lowerback -13.6983 -0.604008 -2.27125
upperback -7.39184 -0.926421 0.55699
thorax -0.0594944 -0.556503 1.73616
lowerneck 5.25939 0.0704771 -6.29895
upperneck 1.64787 -0.297679 7.00522
head -0.380155 -0.258263 3.38222
rclavicle 1.05977e-014 1.53064e-014
rhumerus -40.8455 -15.7448 -81.0127
rradius 19.1125
rwrist 21.5713
rhand -15.8621 12.7441
rfingers 7.12502
rthumb 10.3331 -16.9821
lclavicle 1.05977e-014 1.53064e-014
lhumerus -48.1806 37.9718 59.7763
lradius 15.9396
lwrist -51.8106
lhand -3.1606 22.5373
lfingers 7.12502
lthumb 22.5598 51.2392
rfemur -26.0633 10.9115 22.2122
rtibia 27.9911
rfoot -15.0783 -18.7874
rtoes -5.21858
lfemur -33.3493 -14.1561 -10.2949
ltibia 39.2424
lfoot -18.5809 14.3958
ltoes -9.50905
333
root 47.8012 16.3753 -1.69704 -265.986 -88.5911 284.2
lowerback -13.1567 -0.881308 -1.87861
upperback -7.33857 -1.33991 0.665993
thorax -0.275949 -0.766702 1.58164
lowerneck 5.20357 0.457714 -6.77418
upperneck 1.58941 0.200896 7.40525
head -0.429917 -0.0137115 3.60474
rclavicle -3.00662e-015 -6.75868e-015
rhumerus -40.6869 -15.1752 -81.3317
rradius 18.7974
rwrist 22.2698
rhand -16.1828 12.7654
rfingers 7.12502
rthumb 10.0238 -16.9759
lclavicle -3.00662e-015 -6.75868e-015
lhumerus -48.6538 37.9007 59.6596
lradius 16.5183
lwrist -49.7573
lhand -3.28701 22.5569
lfingers 7.12502
lthumb 22.4385 51.2735
rfemur -25.5612 10.8886 22.642
rtibia 27.9903
rfoot -15.1275 -18.6775
rtoes -4.7457
lfemur -33.5307 -13.5585 -10.3647
ltibia 40.5434
lfoot -18.579 14.2032
ltoes -7.09498
334
root 47.7755 16.374 -1.719 -258.441 -88.4437 276.711
lowerback -13.3573 -0.574025 -1.89244
upperback -6.84808 -0.895625 0.849774
thorax 0.331677 -0.536352 1.83017
lowerneck 3.8777 0.128658 -7.55807
upperneck 1.56507 -0.18323 7.71716
head -0.173721 -0.181474 3.87059
rclavicle -7.48238e-015 2.5842e-015
rhumerus -39.6959 -16.1556 -80.4688
rradius 18.3678
rwrist 22.9028
rhand -16.332 12.8284
rfingers 7.12502
rthumb 9.87982 -16.9198
lclavicle -7.48238e-015 2.5842e-015
lhumerus -47.3953 37.8747 61.4417
lradius 16.9235
lwrist -48.4329
lhand -3.24606 22.8408
lfingers 7.12502
lthumb 22.4778 51.5527
rfemur -25.5229 10.7677 22.9478
rtibia 28.0058
rfoot -15.2873 -18.5467
rtoes -4.52857
lfemur -34.0894 -12.9942 -10.4136
ltibia 41.8255
lfoot -18.1783 14.4679
ltoes -4.89042
335
root 47.7521 16.3568 -1.72413 -249.56 -88.3019 267.752
lowerback -13.3718 -0.152049 -1.8753
upperback -6.72903 -0.327814 0.753454
thorax 0.437974 -0.251906 1.79566
lowerneck 4.36777 -0.135318 -7.14335
upperneck 0.987213 -0.522125 7.672
head -0.418585 -0.35703 3.78281
rclavicle 2.95071e-015 -4.37326e-015
rhumerus -39.8897 -18.0143 -79.1574
rradius 17.8297
rwrist 23.8932
rhand -16.2347 13.3942
rfingers 7.12502
rthumb 9.97372 -16.3495
lclavicle 2.95071e-015 -4.37326e-015
lhumerus -46.871 36.9366 62.4635
lradius 17.3125
lwrist -47.1515
lhand -3.1734 22.9542
lfingers 7.12502
lthumb 22.5475 51.6576
rfemur -25.3637 10.4768 23.1883
rtibia 27.9561
rfoot -15.6258 -18.035
rtoes -5.01965
lfemur -34.5668 -12.2695 -10.6908
ltibia 43.1534
lfoot -17.6838 14.9621
ltoes -4.48284
